<svg viewBox="0 0 400 600" xmlns="http://www.w3.org/2000/svg">
  <!-- Card Background -->
  <rect width="380" height="580" x="10" y="10" rx="20" fill="#F1F8E9" stroke="#689F38" stroke-width="4"/>
  
  <!-- Header -->
  <rect x="25" y="25" width="350" height="60" rx="12" fill="#8BC34A"/>
  <text x="200" y="50" text-anchor="middle" fill="white" font-family="Arial" font-size="24" font-weight="bold">Matrix Traversal</text>
  <text x="200" y="72" text-anchor="middle" fill="white" font-family="Arial" font-size="14">The Grid Master</text>
  
  <!-- Mana Cost -->
  <circle cx="340" cy="55" r="20" fill="#FFC107" stroke="#FF8F00" stroke-width="3"/>
  <text x="340" y="63" text-anchor="middle" font-size="18" font-weight="bold">2</text>
  
  <!-- Visual Illustration -->
  <g transform="translate(30, 110)">
    <text x="170" y="20" text-anchor="middle" font-size="16" fill="#689F38" font-weight="bold">The 2D Grid Navigator</text>
    
    <!-- 4x4 Grid Example -->
    <g transform="translate(50, 40)">
      <text x="100" y="0" text-anchor="middle" font-size="12" fill="#689F38" font-weight="bold">Sample 4×4 Matrix</text>
      
      <!-- Grid cells -->
      <g transform="translate(0, 20)">
        <!-- Row 1 -->
        <rect x="0" y="0" width="40" height="40" fill="#DCEDC8" stroke="#689F38" stroke-width="2"/>
        <text x="20" y="25" text-anchor="middle" font-size="12" font-weight="bold">1</text>
        
        <rect x="40" y="0" width="40" height="40" fill="#C5E1A5" stroke="#689F38" stroke-width="2"/>
        <text x="60" y="25" text-anchor="middle" font-size="12" font-weight="bold">2</text>
        
        <rect x="80" y="0" width="40" height="40" fill="#AED581" stroke="#689F38" stroke-width="2"/>
        <text x="100" y="25" text-anchor="middle" font-size="12" font-weight="bold">3</text>
        
        <rect x="120" y="0" width="40" height="40" fill="#9CCC65" stroke="#689F38" stroke-width="2"/>
        <text x="140" y="25" text-anchor="middle" font-size="12" font-weight="bold">4</text>
        
        <!-- Row 2 -->
        <rect x="0" y="40" width="40" height="40" fill="#C5E1A5" stroke="#689F38" stroke-width="2"/>
        <text x="20" y="65" text-anchor="middle" font-size="12" font-weight="bold">5</text>
        
        <rect x="40" y="40" width="40" height="40" fill="#AED581" stroke="#689F38" stroke-width="2"/>
        <text x="60" y="65" text-anchor="middle" font-size="12" font-weight="bold">6</text>
        
        <rect x="80" y="40" width="40" height="40" fill="#9CCC65" stroke="#689F38" stroke-width="2"/>
        <text x="100" y="65" text-anchor="middle" font-size="12" font-weight="bold">7</text>
        
        <rect x="120" y="40" width="40" height="40" fill="#8BC34A" stroke="#689F38" stroke-width="2"/>
        <text x="140" y="65" text-anchor="middle" font-size="12" font-weight="bold">8</text>
        
        <!-- Row 3 -->
        <rect x="0" y="80" width="40" height="40" fill="#AED581" stroke="#689F38" stroke-width="2"/>
        <text x="20" y="105" text-anchor="middle" font-size="12" font-weight="bold">9</text>
        
        <rect x="40" y="80" width="40" height="40" fill="#9CCC65" stroke="#689F38" stroke-width="2"/>
        <text x="60" y="105" text-anchor="middle" font-size="12" font-weight="bold">10</text>
        
        <rect x="80" y="80" width="40" height="40" fill="#8BC34A" stroke="#689F38" stroke-width="2"/>
        <text x="100" y="105" text-anchor="middle" font-size="12" font-weight="bold">11</text>
        
        <rect x="120" y="80" width="40" height="40" fill="#689F38" stroke="#33691E" stroke-width="2"/>
        <text x="140" y="105" text-anchor="middle" font-size="12" font-weight="bold" fill="white">12</text>
        
        <!-- Row 4 -->
        <rect x="0" y="120" width="40" height="40" fill="#9CCC65" stroke="#689F38" stroke-width="2"/>
        <text x="20" y="145" text-anchor="middle" font-size="12" font-weight="bold">13</text>
        
        <rect x="40" y="120" width="40" height="40" fill="#8BC34A" stroke="#689F38" stroke-width="2"/>
        <text x="60" y="145" text-anchor="middle" font-size="12" font-weight="bold">14</text>
        
        <rect x="80" y="120" width="40" height="40" fill="#689F38" stroke="#33691E" stroke-width="2"/>
        <text x="100" y="145" text-anchor="middle" font-size="12" font-weight="bold" fill="white">15</text>
        
        <rect x="120" y="120" width="40" height="40" fill="#33691E" stroke="#1B5E20" stroke-width="2"/>
        <text x="140" y="145" text-anchor="middle" font-size="12" font-weight="bold" fill="white">16</text>
        
        <!-- Diagonal path -->
        <circle cx="20" cy="20" r="5" fill="#FF5722"/>
        <circle cx="60" cy="60" r="5" fill="#FF5722"/>
        <circle cx="100" cy="100" r="5" fill="#FF5722"/>
        <circle cx="140" cy="140" r="5" fill="#FF5722"/>
        
        <!-- Path lines -->
        <path d="M 20 20 L 60 60 L 100 100 L 140 140" stroke="#FF5722" stroke-width="3" fill="none" stroke-dasharray="5,5"/>
        
        <!-- Direction indicators -->
        <text x="-15" y="20" font-size="10" fill="#666">→</text>
        <text x="20" y="-10" font-size="10" fill="#666">↓</text>
      </g>
    </g>
    
    <!-- Traversal Patterns -->
    <g transform="translate(0, 240)">
      <text x="170" y="0" text-anchor="middle" font-size="14" fill="#689F38" font-weight="bold">Common Traversal Patterns:</text>
      
      <!-- Row-wise -->
      <g transform="translate(0, 25)">
        <text x="0" y="0" font-size="12" fill="#689F38" font-weight="bold">1. Row-wise (Left to Right):</text>
        <rect x="0" y="10" width="300" height="20" fill="#E8F5E8" stroke="#689F38" rx="3"/>
        <text x="150" y="24" text-anchor="middle" font-size="10">1→2→3→4, 5→6→7→8, 9→10→11→12, 13→14→15→16</text>
      </g>
      
      <!-- Column-wise -->
      <g transform="translate(0, 60)">
        <text x="0" y="0" font-size="12" fill="#689F38" font-weight="bold">2. Column-wise (Top to Bottom):</text>
        <rect x="0" y="10" width="300" height="20" fill="#E8F5E8" stroke="#689F38" rx="3"/>
        <text x="150" y="24" text-anchor="middle" font-size="10">1→5→9→13, 2→6→10→14, 3→7→11→15, 4→8→12→16</text>
      </g>
      
      <!-- Diagonal -->
      <g transform="translate(0, 95)">
        <text x="0" y="0" font-size="12" fill="#689F38" font-weight="bold">3. Diagonal:</text>
        <rect x="0" y="10" width="300" height="20" fill="#E8F5E8" stroke="#689F38" rx="3"/>
        <text x="150" y="24" text-anchor="middle" font-size="10">1→6→11→16 (main diagonal)</text>
      </g>
      
      <!-- Spiral -->
      <g transform="translate(0, 130)">
        <text x="0" y="0" font-size="12" fill="#689F38" font-weight="bold">4. Spiral (Clockwise):</text>
        <rect x="0" y="10" width="300" height="20" fill="#E8F5E8" stroke="#689F38" rx="3"/>
        <text x="150" y="24" text-anchor="middle" font-size="10">1→2→3→4→8→12→16→15→14→13→9→5→6→7→11→10</text>
      </g>
    </g>
    
    <!-- Directions Array -->
    <g transform="translate(0, 400)">
      <text x="170" y="0" text-anchor="middle" font-size="12" fill="#689F38" font-weight="bold">💡 Pro Tip: Use Directions Array</text>
      <rect x="30" y="10" width="280" height="40" fill="#F9FBE7" stroke="#689F38" rx="5"/>
      <text x="170" y="25" text-anchor="middle" font-size="10" fill="#666">directions = [[0,1], [1,0], [0,-1], [-1,0]]</text>
      <text x="170" y="40" text-anchor="middle" font-size="10" fill="#666">// Right, Down, Left, Up</text>
    </g>
  </g>
  
  <!-- Powers -->
  <rect x="25" y="470" width="350" height="60" rx="8" fill="#F8FFF8" stroke="#8BC34A" stroke-width="2"/>
  <text x="200" y="495" text-anchor="middle" font-size="18" fill="#689F38" font-weight="bold">2D Grid Navigator</text>
  <text x="200" y="515" text-anchor="middle" font-size="14" fill="#666">• O(m×n) time to visit all cells • Flexible patterns</text>
  
  <!-- Real World Applications -->
  <rect x="25" y="540" width="350" height="30" rx="8" fill="#F1F8E9" stroke="#8BC34A" stroke-width="2"/>
  <text x="200" y="560" text-anchor="middle" font-size="13" fill="#666">Image processing • Game grids • Geographic data • Spreadsheet analysis</text>
</svg>